<svg width="80" height="80" viewBox="0 0 80 80" fill="none" xmlns="http://www.w3.org/2000/svg">
<g clip-path="url(#clip0_11_34)">
<path d="M79.4834 10.0267C78.0934 8.25001 75.6634 9.67334 74.5934 10.2933C66.98 14.78 65.8567 22.68 63.2034 27.2167C61.1167 30.85 57.6967 33.5167 54.6034 33.7233C52.3167 33.8867 49.8367 33.4433 47.3767 32.3733C41.3534 29.77 38.11 26.4 37.32 25.8067C35.6967 24.5733 23.22 12.4233 13.0534 11.9267C13.0534 11.9267 11.8134 9.42667 11.5034 9.38334C10.7634 9.30001 10.0034 10.8867 9.45004 11.0533C8.95004 11.23 8.07338 9.34667 7.56671 9.43001C7.05671 9.49667 6.56004 11.3833 5.56671 12.3533C4.83338 13.0633 3.94671 13.02 3.44338 13.8967C3.27004 14.2167 3.33004 14.78 3.13338 15.2967C2.71004 16.3633 1.29671 16.4767 1.28338 17.62C1.28338 18.89 2.47338 19.1333 3.51338 20.02C4.34004 20.7267 4.39671 21.2267 5.36004 21.5567C6.22004 21.85 7.46671 20.9333 8.57338 21.2633C9.49671 21.5333 10.3834 21.73 10.58 22.6733C10.76 23.5267 10.58 24.8667 9.44671 24.7167C9.07338 24.6667 7.45338 24.1367 5.45338 24.35C3.03671 24.6067 0.276709 25.38 0.00670894 28.05C-0.129958 29.54 1.72004 31.2833 3.52338 30.9367C4.76004 30.7 4.17671 29.25 4.85338 28.55C5.74338 27.65 10.76 31.6967 15.4267 31.6967C17.4034 31.6967 18.8634 31.1967 20.3167 29.68C20.45 29.5833 20.6267 29.34 20.8334 29.3133C21.0651 29.3735 21.285 29.4727 21.4834 29.6067C25.2534 32.5967 28.0967 38.6067 41.9167 38.6767C43.8567 38.7 46.0834 39.6067 47.9034 41.2667C49.5034 42.71 50.45 45.0167 51.36 47.35C52.7534 50.86 55.23 54.2467 59 58.0267C59.2001 58.2533 62.3 60.6267 62.5334 60.8033C62.5734 60.8367 62.8134 61.36 62.71 61.6533C62.6434 63.9533 62.3 70.5533 67.26 70.83C68.48 70.8967 68.1767 70.06 68.1767 69.4633C68.16 68.3267 67.96 67.18 68.5534 65.9967C69.3967 64.4033 66.8 63.6333 66.8567 60.1433C66.92 57.53 64.7067 57.9733 63.5767 55.9767C62.9434 54.8333 62.35 54.2033 62.41 52.8233C62.6534 44.89 60.6867 39.6633 59.7267 38.4C58.97 37.42 58.3167 37.0567 59.0367 36.6C63.17 33.8833 64.12 31.3533 64.12 31.3533C66.32 26.2167 68.3067 21.5367 71.0367 19.4533C71.59 19.0533 73 17.9867 73.8767 17.5867C76.42 16.38 77.7867 15.66 78.5034 14.96C79.69 13.8367 80.62 11.45 79.4834 10.0267Z" fill="black"/>
</g>
<defs>
<clipPath id="clip0_11_34">
<rect width="80" height="80" fill="white"/>
</clipPath>
</defs>
</svg>
